<svg width="261" height="261" viewBox="0 0 261 261" fill="none" xmlns="http://www.w3.org/2000/svg">
<path d="M211.656 43.4364C182.492 25.5479 157.039 32.7567 141.749 44.2396C135.479 48.948 132.344 51.3021 130.5 51.3021C128.656 51.3021 125.521 48.948 119.251 44.2396C103.961 32.7567 78.5076 25.5479 49.3446 43.4364C11.0715 66.9132 2.4112 144.365 90.6924 209.707C107.507 222.152 115.914 228.375 130.5 228.375C145.086 228.375 153.493 222.152 170.308 209.707C258.589 144.365 249.928 66.9132 211.656 43.4364Z" fill="#D6D6D6"/>
<g clip-path="url(#clip0_1031_7492)">
<path d="M190.529 147.216L185.192 146.815C184.232 145.599 183.156 143.554 182.488 140.119L182.2 138.648L180.714 138.465C180.551 138.444 164.319 136.434 151.493 133.72C140.744 131.444 134.462 135.596 132.259 137.49C131.572 138.077 130.977 138.702 130.463 139.345C129.949 138.702 129.353 138.079 128.668 137.492C126.466 135.601 120.182 131.452 109.433 133.722C96.6085 136.436 80.3747 138.449 80.2117 138.467L78.7255 138.65L78.4407 140.119C77.7782 143.516 76.7209 145.552 75.7686 146.777L69.894 147.216C67.9085 147.363 66.4155 149.097 66.5656 151.084C66.7145 153.069 68.4484 154.555 70.4336 154.41L114.802 151.09C116.818 154.654 121.386 158.691 129.964 158.691C130.05 158.691 130.131 158.673 130.215 158.667C130.3 158.673 130.38 158.691 130.467 158.691C139.044 158.691 143.612 154.654 145.629 151.09L189.994 154.41C191.991 154.558 193.715 153.069 193.862 151.084C194.006 149.097 192.516 147.363 190.529 147.216ZM143.545 143.698C141.662 143.558 140.08 144.815 139.734 146.612C139.724 146.658 138.696 151.474 130.461 151.474C130.374 151.474 130.294 151.495 130.209 151.5C130.125 151.494 130.044 151.474 129.958 151.474C122.094 151.474 120.795 147.04 120.687 146.61C120.341 144.812 118.702 143.562 116.876 143.696L80.7768 146.398C81.2984 145.271 81.7745 143.946 82.1651 142.372C86.4684 141.811 99.5406 140.027 110.287 137.756C116.492 136.442 122.36 137.512 125.985 140.619C127.847 142.218 128.451 143.799 128.403 144.667C128.403 144.682 128.409 144.694 128.409 144.709C128.411 144.77 128.401 144.834 128.406 144.896C128.412 144.991 128.457 145.071 128.476 145.162C128.505 145.311 128.53 145.452 128.587 145.589C128.636 145.701 128.705 145.796 128.773 145.897C128.85 146.016 128.927 146.132 129.026 146.231C129.117 146.319 129.222 146.388 129.327 146.461C129.437 146.535 129.541 146.61 129.665 146.662C129.795 146.718 129.932 146.741 130.072 146.769C130.166 146.787 130.249 146.833 130.348 146.839C130.387 146.841 130.422 146.823 130.461 146.823C130.503 146.823 130.538 146.841 130.579 146.839C130.69 146.833 130.781 146.783 130.887 146.759C131.008 146.733 131.127 146.714 131.241 146.666C131.387 146.608 131.513 146.521 131.639 146.431C131.723 146.368 131.814 146.314 131.888 146.239C131.998 146.133 132.083 146.008 132.167 145.877C132.229 145.782 132.292 145.694 132.34 145.589C132.4 145.452 132.425 145.309 132.453 145.158C132.472 145.067 132.518 144.989 132.524 144.894C132.528 144.832 132.518 144.768 132.52 144.707C132.52 144.692 132.526 144.68 132.526 144.665C132.478 143.795 133.083 142.214 134.946 140.616C138.57 137.509 144.436 136.439 150.642 137.753C161.389 140.024 174.461 141.808 178.763 142.369C179.158 143.96 179.642 145.301 180.169 146.435L143.545 143.698Z" fill="#F5F5F5"/>
<path d="M127.89 118.755V99.1799H133.11V118.755H127.89Z" fill="#F5F5F5"/>
<path d="M143.702 119.907L150.075 101.398L155.011 103.098L148.638 121.606L143.702 119.907Z" fill="#F5F5F5"/>
<path d="M158.605 126.764L170.656 111.339L174.77 114.553L162.718 129.978L158.605 126.764Z" fill="#F5F5F5"/>
<path d="M112.392 121.971L105.697 103.576L110.602 101.791L117.297 120.186L112.392 121.971Z" fill="#F5F5F5"/>
<path d="M99.6582 130.111L88.1523 114.274L92.3754 111.206L103.881 127.043L99.6582 130.111Z" fill="#F5F5F5"/>
</g>
<defs>
<clipPath id="clip0_1031_7492">
<rect width="127.89" height="95.265" fill="white" transform="translate(66.5552 82.2151)"/>
</clipPath>
</defs>
</svg>
