<svg width="1024" height="1024" viewBox="0 0 1024 1024" fill="none" xmlns="http://www.w3.org/2000/svg">
<rect width="1024" height="1024" fill="white"/>
<g transform="translate(199.2 235.6) scale(9.2)">
<path d="M59.3728 3.44271C50.2551 -2.25359 42.2974 0.0419414 37.517 3.69848C35.5565 5.19777 34.5766 5.9474 34 5.9474C33.4234 5.9474 32.4435 5.19777 30.483 3.69848C25.7027 0.0419414 17.7449 -2.25359 8.62729 3.44271C-3.33857 10.9185 -6.04615 35.5816 21.5544 56.3888C26.8114 60.3518 29.4399 62.3333 34 62.3333C38.5601 62.3333 41.1886 60.3518 46.4457 56.3888C74.0462 35.5816 71.3384 10.9185 59.3728 3.44271Z" fill="#292929"/>
<g clip-path="url(#clip0)">
<path d="M53.9485 36.3991L52.1752 36.262C51.8559 35.846 51.4986 35.1467 51.2764 33.9718L51.1807 33.4686L50.6869 33.406C50.6327 33.3991 45.2385 32.7115 40.9761 31.7833C37.4043 31.0048 35.3164 32.425 34.5844 33.0726C34.3562 33.2733 34.1583 33.4873 33.9875 33.7072C33.8168 33.4871 33.6188 33.2741 33.3912 33.0733C32.6595 32.4265 30.5711 31.0074 26.9989 31.784C22.7372 32.7122 17.3425 33.4005 17.2883 33.4067L16.7944 33.4694L16.6998 33.9718C16.4796 35.1339 16.1282 35.8302 15.8118 36.249L13.8596 36.3991C13.1997 36.4494 12.7036 37.0424 12.7535 37.7221C12.8029 38.4012 13.3792 38.9095 14.0389 38.8598L28.7832 37.7243C29.4533 38.9433 30.9713 40.3241 33.8217 40.3241C33.8505 40.3241 33.8772 40.3179 33.9053 40.3159C33.9333 40.318 33.9601 40.3241 33.9889 40.3241C36.8394 40.3241 38.3571 38.9433 39.0275 37.7243L53.7709 38.8598C54.4346 38.9103 55.0075 38.4012 55.0563 37.7221C55.1041 37.0424 54.6088 36.4494 53.9485 36.3991ZM38.335 35.1959C37.7093 35.1481 37.1835 35.5782 37.0684 36.1925C37.0651 36.2083 36.7238 37.8557 33.987 37.8557C33.9582 37.8557 33.9314 37.8626 33.9034 37.8646C33.8753 37.8625 33.8486 37.8557 33.8198 37.8557C31.2064 37.8557 30.7748 36.3392 30.739 36.1918C30.6239 35.5768 30.0791 35.1495 29.4723 35.1952L17.4761 36.1195C17.6494 35.7341 17.8076 35.2806 17.9375 34.7425C19.3675 34.5506 23.7116 33.9404 27.2828 33.1636C29.3448 32.7142 31.2948 33.0803 32.4996 34.143C33.1182 34.6898 33.3189 35.2304 33.3032 35.5274C33.3032 35.5324 33.3052 35.5366 33.3052 35.5417C33.3058 35.5627 33.3025 35.5844 33.3039 35.6057C33.306 35.6381 33.3209 35.6657 33.3274 35.6966C33.3368 35.7477 33.3452 35.7959 33.3642 35.8426C33.3806 35.8811 33.4034 35.9135 33.426 35.948C33.4518 35.9888 33.4773 36.0286 33.51 36.0623C33.5405 36.0926 33.5752 36.1161 33.61 36.1409C33.6465 36.1664 33.6813 36.192 33.7224 36.2097C33.7656 36.2289 33.8111 36.2366 33.8576 36.2462C33.889 36.2524 33.9164 36.2682 33.9493 36.2703C33.9624 36.2711 33.9741 36.2648 33.9871 36.2648C34.0008 36.2648 34.0126 36.2711 34.0263 36.2703C34.0631 36.2682 34.0932 36.2511 34.1285 36.2428C34.1688 36.2339 34.2084 36.2276 34.2462 36.2112C34.2948 36.1912 34.3366 36.1615 34.3783 36.1306C34.4065 36.1093 34.4366 36.0906 34.4613 36.0652C34.4977 36.0287 34.5259 35.986 34.5539 35.9412C34.5744 35.9088 34.5954 35.8787 34.6114 35.8427C34.6312 35.796 34.6396 35.747 34.649 35.6953C34.6553 35.6643 34.6704 35.6376 34.6725 35.6052C34.6739 35.5838 34.6704 35.5621 34.6711 35.5412C34.6711 35.536 34.6731 35.5319 34.6731 35.5267C34.6574 35.2292 34.8585 34.6883 35.4775 34.1418C36.6819 33.0791 38.6312 32.7132 40.6934 33.1625C44.2648 33.9393 48.6089 34.5496 50.0387 34.7414C50.1699 35.2857 50.3305 35.7441 50.5059 36.1322L38.335 35.1959Z" fill="white"/>
<path d="M34.2129 26.9536V20.1035H36.0396V26.9536H34.2129Z" fill="white"/>
<path d="M39.7464 27.3563L41.9766 20.8794L43.7037 21.4741L41.4736 27.951L39.7464 27.3563Z" fill="white"/>
<path d="M44.9614 29.7559L49.1787 24.3579L50.6182 25.4825L46.4008 30.8805L44.9614 29.7559Z" fill="white"/>
<path d="M28.7901 28.0786L26.4473 21.6416L28.1638 21.0168L30.5067 27.4538L28.7901 28.0786Z" fill="white"/>
<path d="M24.334 30.9271L20.3076 25.3853L21.7854 24.3115L25.8118 29.8534L24.334 30.9271Z" fill="white"/>
</g>
</g>
<defs>
<clipPath id="clip0">
<rect width="42.5" height="32.5833" fill="white" transform="translate(12.75 14.167)"/>
</clipPath>
</defs>
</svg>
