<svg width="142" height="34" viewBox="0 0 142 34" fill="none" xmlns="http://www.w3.org/2000/svg">
<path d="M12.9302 2.792C13.3462 2.792 13.6982 2.896 13.9862 3.104C14.2742 3.296 14.4182 3.536 14.4182 3.824C14.4182 4.336 14.2582 4.752 13.9382 5.072C13.6182 5.376 13.1622 5.528 12.5702 5.528C11.6422 5.528 10.9382 5.536 10.4582 5.552C10.4262 5.744 10.2822 6.608 10.0262 8.144C9.73822 9.856 9.56222 10.904 9.49822 11.288L8.99422 14.432C8.64222 16.784 8.36222 18.752 8.15422 20.336C8.49022 20.32 8.94622 20.312 9.52222 20.312C10.3702 20.312 10.9462 20.424 11.2502 20.648C11.5542 20.872 11.7062 21.208 11.7062 21.656C11.7062 22.072 11.5382 22.424 11.2022 22.712C10.8822 23 10.4262 23.144 9.83422 23.144C9.43422 23.144 8.80222 23.128 7.93822 23.096C7.13822 23.064 6.61022 23.048 6.35422 23.048C5.34622 23.048 4.24222 23.136 3.04222 23.312C2.51422 23.392 2.13822 23.432 1.91422 23.432C1.56222 23.432 1.26622 23.336 1.02622 23.144C0.786219 22.952 0.666219 22.672 0.666219 22.304C0.666219 21.728 0.922219 21.28 1.43422 20.96C1.94622 20.64 2.66622 20.472 3.59422 20.456L4.72222 20.432L4.79422 19.904C5.17822 17.344 5.45822 15.536 5.63422 14.48L6.16222 11.336C6.48222 9.48 6.77022 7.568 7.02622 5.6L5.01022 5.624C4.43422 5.624 4.03422 5.536 3.81022 5.36C3.60222 5.168 3.49822 4.904 3.49822 4.568C3.49822 3.48 4.28222 2.896 5.85022 2.816C6.58622 2.784 7.48222 2.768 8.53822 2.768L12.9302 2.792ZM15.813 23.12C15.205 23.12 14.773 22.8 14.517 22.16C14.277 21.52 14.157 20.496 14.157 19.088C14.157 17.008 14.453 15.032 15.045 13.16C15.189 12.696 15.421 12.36 15.741 12.152C16.077 11.928 16.541 11.816 17.133 11.816C17.453 11.816 17.677 11.856 17.805 11.936C17.933 12.016 17.997 12.168 17.997 12.392C17.997 12.648 17.877 13.224 17.637 14.12C17.477 14.76 17.349 15.32 17.253 15.8C17.157 16.28 17.077 16.872 17.013 17.576C17.541 16.2 18.133 15.08 18.789 14.216C19.445 13.352 20.085 12.736 20.709 12.368C21.349 12 21.933 11.816 22.461 11.816C23.501 11.816 24.021 12.336 24.021 13.376C24.021 14 23.845 15.128 23.493 16.76C23.189 18.152 23.037 19.072 23.037 19.52C23.037 20.16 23.269 20.48 23.733 20.48C24.053 20.48 24.429 20.288 24.861 19.904C25.309 19.504 25.901 18.864 26.637 17.984C26.829 17.76 27.045 17.648 27.285 17.648C27.493 17.648 27.653 17.744 27.765 17.936C27.893 18.128 27.957 18.392 27.957 18.728C27.957 19.368 27.805 19.864 27.501 20.216C26.813 21.064 26.069 21.76 25.269 22.304C24.485 22.848 23.589 23.12 22.581 23.12C21.765 23.12 21.149 22.888 20.733 22.424C20.317 21.944 20.109 21.256 20.109 20.36C20.109 19.912 20.221 19.112 20.445 17.96C20.653 16.952 20.757 16.256 20.757 15.872C20.757 15.616 20.669 15.488 20.493 15.488C20.285 15.488 19.989 15.76 19.605 16.304C19.237 16.832 18.853 17.536 18.453 18.416C18.069 19.296 17.757 20.224 17.517 21.2C17.341 21.952 17.133 22.464 16.893 22.736C16.669 22.992 16.309 23.12 15.813 23.12ZM36.7193 17.648C36.9273 17.648 37.0873 17.744 37.1993 17.936C37.3273 18.128 37.3913 18.392 37.3913 18.728C37.3913 19.368 37.2393 19.864 36.9353 20.216C36.2473 21.064 35.4953 21.76 34.6793 22.304C33.8633 22.848 32.9273 23.12 31.8713 23.12C28.6073 23.12 26.9753 20.824 26.9753 16.232C26.9753 15.528 26.9993 14.816 27.0473 14.096H26.1113C25.6313 14.096 25.3033 14.008 25.1273 13.832C24.9673 13.656 24.8873 13.376 24.8873 12.992C24.8873 12.096 25.2473 11.648 25.9673 11.648H27.3353C27.6073 9.888 28.0233 8.28 28.5833 6.824C29.1433 5.368 29.8153 4.208 30.5993 3.344C31.3993 2.48 32.2553 2.048 33.1673 2.048C33.8393 2.048 34.3673 2.344 34.7513 2.936C35.1353 3.528 35.3273 4.272 35.3273 5.168C35.3273 7.648 34.2873 9.808 32.2073 11.648H34.8953C35.1513 11.648 35.3353 11.704 35.4473 11.816C35.5593 11.928 35.6153 12.136 35.6153 12.44C35.6153 13.544 34.7113 14.096 32.9033 14.096H29.9753C29.9433 14.896 29.9273 15.52 29.9273 15.968C29.9273 17.632 30.1193 18.8 30.5033 19.472C30.9033 20.144 31.5273 20.48 32.3753 20.48C33.0633 20.48 33.6713 20.272 34.1993 19.856C34.7273 19.44 35.3513 18.816 36.0713 17.984C36.2633 17.76 36.4793 17.648 36.7193 17.648ZM32.5193 4.352C32.2793 4.352 32.0073 4.656 31.7033 5.264C31.4153 5.856 31.1353 6.688 30.8633 7.76C30.6073 8.816 30.3913 9.992 30.2153 11.288C31.1593 10.472 31.8633 9.56 32.3273 8.552C32.8073 7.528 33.0473 6.6 33.0473 5.768C33.0473 4.824 32.8713 4.352 32.5193 4.352ZM39.4932 23.12C38.5492 23.12 37.7412 22.888 37.0692 22.424C36.4132 21.944 35.9172 21.32 35.5812 20.552C35.2452 19.784 35.0772 18.96 35.0772 18.08C35.0772 16.864 35.3012 15.784 35.7492 14.84C36.2132 13.88 36.8372 13.136 37.6212 12.608C38.4052 12.064 39.2852 11.792 40.2612 11.792C41.2052 11.792 42.0132 12.032 42.6852 12.512C43.3572 12.976 43.8612 13.592 44.1972 14.36C44.5332 15.128 44.7012 15.952 44.7012 16.832C44.7012 18.048 44.4692 19.136 44.0052 20.096C43.5412 21.04 42.9092 21.784 42.1092 22.328C41.3252 22.856 40.4532 23.12 39.4932 23.12ZM39.7572 20.528C40.3012 20.528 40.7572 20.232 41.1252 19.64C41.5092 19.048 41.7012 18.184 41.7012 17.048C41.7012 16.168 41.5412 15.504 41.2212 15.056C40.9012 14.608 40.5172 14.384 40.0692 14.384C39.4932 14.384 39.0132 14.68 38.6292 15.272C38.2612 15.848 38.0772 16.712 38.0772 17.864C38.0772 18.776 38.2372 19.448 38.5572 19.88C38.8772 20.312 39.2772 20.528 39.7572 20.528ZM54.3677 23.12C53.7597 23.12 53.3277 22.8 53.0717 22.16C52.8317 21.52 52.7117 20.496 52.7117 19.088C52.7117 17.008 53.0077 15.032 53.5997 13.16C53.7437 12.696 53.9757 12.36 54.2957 12.152C54.6317 11.928 55.0957 11.816 55.6877 11.816C56.0077 11.816 56.2317 11.856 56.3597 11.936C56.4877 12.016 56.5517 12.168 56.5517 12.392C56.5517 12.648 56.4317 13.224 56.1917 14.12C56.0317 14.76 55.9037 15.32 55.8077 15.8C55.7117 16.264 55.6317 16.848 55.5677 17.552C55.9997 16.304 56.5117 15.248 57.1037 14.384C57.7117 13.52 58.3277 12.88 58.9517 12.464C59.5917 12.032 60.1917 11.816 60.7517 11.816C61.3117 11.816 61.7037 11.944 61.9277 12.2C62.1677 12.456 62.2877 12.848 62.2877 13.376C62.2877 13.888 62.1357 14.816 61.8317 16.16C61.7037 16.736 61.6157 17.168 61.5677 17.456C62.3677 15.488 63.2557 14.056 64.2317 13.16C65.2077 12.264 66.1197 11.816 66.9677 11.816C68.0077 11.816 68.5277 12.336 68.5277 13.376C68.5277 14 68.3517 15.128 67.9997 16.76C67.6957 18.152 67.5437 19.072 67.5437 19.52C67.5437 20.16 67.7757 20.48 68.2397 20.48C68.5597 20.48 68.9357 20.288 69.3677 19.904C69.8157 19.504 70.4077 18.864 71.1437 17.984C71.3357 17.76 71.5517 17.648 71.7917 17.648C71.9997 17.648 72.1597 17.744 72.2717 17.936C72.3997 18.128 72.4637 18.392 72.4637 18.728C72.4637 19.368 72.3117 19.864 72.0077 20.216C71.3197 21.064 70.5757 21.76 69.7757 22.304C68.9917 22.848 68.0957 23.12 67.0877 23.12C66.2717 23.12 65.6557 22.888 65.2397 22.424C64.8237 21.944 64.6157 21.256 64.6157 20.36C64.6157 19.912 64.7277 19.112 64.9517 17.96C65.1597 16.952 65.2637 16.256 65.2637 15.872C65.2637 15.616 65.1757 15.488 64.9997 15.488C64.7917 15.488 64.4957 15.76 64.1117 16.304C63.7277 16.832 63.3437 17.536 62.9597 18.416C62.5757 19.296 62.2637 20.224 62.0237 21.2C61.8477 21.968 61.6397 22.48 61.3997 22.736C61.1757 22.992 60.8077 23.12 60.2957 23.12C59.7677 23.12 59.3677 22.872 59.0957 22.376C58.8397 21.864 58.7117 21.248 58.7117 20.528C58.7117 19.92 58.7917 19.04 58.9517 17.888C59.0797 16.864 59.1437 16.192 59.1437 15.872C59.1437 15.616 59.0557 15.488 58.8797 15.488C58.6397 15.488 58.3357 15.776 57.9677 16.352C57.5997 16.928 57.2397 17.664 56.8877 18.56C56.5517 19.456 56.2797 20.336 56.0717 21.2C55.8957 21.952 55.6877 22.464 55.4477 22.736C55.2237 22.992 54.8637 23.12 54.3677 23.12ZM78.9231 11.816C79.2911 11.816 79.5471 11.864 79.6911 11.96C79.8351 12.056 79.9071 12.216 79.9071 12.44C79.9071 12.824 79.6991 14.192 79.2831 16.544C78.9151 18.8 78.6991 20.136 78.6351 20.552C78.0431 24.664 77.2271 27.92 76.1871 30.32C75.1471 32.72 73.7631 33.92 72.0351 33.92C71.2191 33.92 70.5551 33.664 70.0431 33.152C69.5311 32.656 69.2751 32 69.2751 31.184C69.2751 30.432 69.4431 29.664 69.7791 28.88C70.1311 28.096 70.7711 27.192 71.6991 26.168C72.6431 25.16 73.9711 24 75.6831 22.688L75.7551 22.136C75.8671 21.544 75.9951 20.696 76.1391 19.592C75.8191 20.744 75.3711 21.624 74.7951 22.232C74.2191 22.824 73.6111 23.12 72.9711 23.12C72.2511 23.12 71.6591 22.792 71.1951 22.136C70.7471 21.464 70.5231 20.632 70.5231 19.64C70.5231 18.44 70.6031 17.344 70.7631 16.352C70.9231 15.344 71.1871 14.28 71.5551 13.16C71.7151 12.68 71.9391 12.336 72.2271 12.128C72.5151 11.92 72.9711 11.816 73.5951 11.816C73.9471 11.816 74.1871 11.872 74.3151 11.984C74.4591 12.096 74.5311 12.264 74.5311 12.488C74.5311 12.616 74.4431 13.048 74.2671 13.784C74.1071 14.376 73.9791 14.912 73.8831 15.392C73.7551 16.048 73.6431 16.68 73.5471 17.288C73.4511 17.88 73.4031 18.368 73.4031 18.752C73.4031 19.36 73.5711 19.664 73.9071 19.664C74.1471 19.664 74.4431 19.424 74.7951 18.944C75.1631 18.464 75.5471 17.736 75.9471 16.76C76.3631 15.784 76.7631 14.584 77.1471 13.16C77.2751 12.68 77.4671 12.336 77.7231 12.128C77.9951 11.92 78.3951 11.816 78.9231 11.816ZM72.2991 31.592C72.6991 31.592 73.1471 31.128 73.6431 30.2C74.1391 29.272 74.6351 27.728 75.1311 25.568C73.8991 26.608 73.0031 27.552 72.4431 28.4C71.8991 29.264 71.6271 30.016 71.6271 30.656C71.6271 30.928 71.6751 31.152 71.7711 31.328C71.8831 31.504 72.0591 31.592 72.2991 31.592ZM100.976 17.648C101.184 17.648 101.344 17.744 101.456 17.936C101.584 18.128 101.648 18.392 101.648 18.728C101.648 19.368 101.496 19.864 101.192 20.216C100.456 21.064 99.6959 21.76 98.9119 22.304C98.1439 22.848 97.2639 23.12 96.2719 23.12C95.4559 23.12 94.8399 22.888 94.4239 22.424C94.0079 21.944 93.7999 21.256 93.7999 20.36C93.7999 19.912 93.9119 19.112 94.1359 17.96C94.3439 16.952 94.4479 16.256 94.4479 15.872C94.4479 15.616 94.3599 15.488 94.1839 15.488C93.9759 15.488 93.6799 15.76 93.2959 16.304C92.9119 16.832 92.5279 17.536 92.1439 18.416C91.7599 19.296 91.4479 20.224 91.2079 21.2C90.9039 22.48 90.1519 23.12 88.9519 23.12C88.4719 23.12 88.1519 22.952 87.9919 22.616C87.8479 22.264 87.7759 21.64 87.7759 20.744C87.7759 20.232 87.7839 19.824 87.7999 19.52L87.8239 17.6C87.8239 15.136 88.0719 12.568 88.5679 9.896C89.0799 7.224 89.8239 4.984 90.7999 3.176C91.7919 1.352 92.9759 0.439999 94.3519 0.439999C95.0879 0.439999 95.6799 0.759999 96.1279 1.4C96.5919 2.024 96.8239 2.84 96.8239 3.848C96.8239 5.464 96.3519 7.144 95.4079 8.888C94.4639 10.616 92.9279 12.64 90.7999 14.96C90.7519 15.792 90.7279 16.648 90.7279 17.528C91.2559 16.168 91.8399 15.064 92.4799 14.216C93.1359 13.352 93.7759 12.736 94.3999 12.368C95.0399 12 95.6239 11.816 96.1519 11.816C97.1919 11.816 97.7119 12.336 97.7119 13.376C97.7119 14 97.5359 15.128 97.1839 16.76C96.8799 18.152 96.7279 19.072 96.7279 19.52C96.7279 20.16 96.9599 20.48 97.4239 20.48C97.7439 20.48 98.1199 20.288 98.5519 19.904C98.9999 19.504 99.5919 18.864 100.328 17.984C100.52 17.76 100.736 17.648 100.976 17.648ZM93.8479 2.816C93.5599 2.816 93.2399 3.232 92.8879 4.064C92.5359 4.88 92.1919 5.992 91.8559 7.4C91.5359 8.792 91.2719 10.312 91.0639 11.96C92.0559 10.792 92.8719 9.52 93.5119 8.144C94.1679 6.768 94.4959 5.52 94.4959 4.4C94.4959 3.888 94.4399 3.496 94.3279 3.224C94.2159 2.952 94.0559 2.816 93.8479 2.816ZM110.407 17.648C110.615 17.648 110.775 17.744 110.887 17.936C111.015 18.128 111.079 18.392 111.079 18.728C111.079 19.368 110.927 19.864 110.623 20.216C110.031 20.936 109.191 21.6 108.103 22.208C107.031 22.816 105.879 23.12 104.647 23.12C102.967 23.12 101.663 22.664 100.735 21.752C99.8068 20.84 99.3428 19.592 99.3428 18.008C99.3428 16.904 99.5748 15.88 100.039 14.936C100.503 13.976 101.143 13.216 101.959 12.656C102.791 12.096 103.727 11.816 104.767 11.816C105.695 11.816 106.439 12.096 106.999 12.656C107.559 13.2 107.839 13.944 107.839 14.888C107.839 15.992 107.439 16.944 106.639 17.744C105.855 18.528 104.519 19.152 102.631 19.616C103.031 20.352 103.791 20.72 104.911 20.72C105.631 20.72 106.447 20.472 107.359 19.976C108.287 19.464 109.087 18.8 109.759 17.984C109.951 17.76 110.167 17.648 110.407 17.648ZM104.359 14.168C103.767 14.168 103.263 14.512 102.847 15.2C102.447 15.888 102.247 16.72 102.247 17.696V17.744C103.191 17.52 103.935 17.184 104.479 16.736C105.023 16.288 105.295 15.768 105.295 15.176C105.295 14.872 105.207 14.632 105.031 14.456C104.871 14.264 104.647 14.168 104.359 14.168ZM111.959 23.12C110.967 23.12 110.175 22.76 109.583 22.04C108.991 21.32 108.695 20.376 108.695 19.208C108.695 17.928 108.991 16.72 109.583 15.584C110.175 14.432 110.959 13.512 111.935 12.824C112.927 12.12 113.975 11.768 115.079 11.768C115.431 11.768 115.663 11.84 115.775 11.984C115.903 12.112 116.007 12.352 116.087 12.704C116.423 12.64 116.775 12.608 117.143 12.608C117.927 12.608 118.319 12.888 118.319 13.448C118.319 13.784 118.199 14.584 117.959 15.848C117.591 17.688 117.407 18.968 117.407 19.688C117.407 19.928 117.463 20.12 117.575 20.264C117.703 20.408 117.863 20.48 118.055 20.48C118.359 20.48 118.727 20.288 119.159 19.904C119.591 19.504 120.175 18.864 120.911 17.984C121.103 17.76 121.319 17.648 121.559 17.648C121.767 17.648 121.927 17.744 122.039 17.936C122.167 18.128 122.231 18.392 122.231 18.728C122.231 19.368 122.079 19.864 121.775 20.216C121.119 21.032 120.423 21.72 119.687 22.28C118.951 22.84 118.239 23.12 117.551 23.12C117.023 23.12 116.535 22.944 116.087 22.592C115.655 22.224 115.327 21.728 115.103 21.104C114.271 22.448 113.223 23.12 111.959 23.12ZM112.823 20.696C113.175 20.696 113.511 20.488 113.831 20.072C114.151 19.656 114.383 19.104 114.527 18.416L115.415 14C114.743 14.016 114.119 14.272 113.543 14.768C112.983 15.248 112.535 15.888 112.199 16.688C111.863 17.488 111.695 18.336 111.695 19.232C111.695 19.728 111.791 20.096 111.983 20.336C112.191 20.576 112.471 20.696 112.823 20.696ZM129.977 15.104C130.329 15.104 130.625 15.232 130.865 15.488C131.121 15.728 131.249 16.032 131.249 16.4C131.249 16.608 131.201 16.832 131.105 17.072C130.849 17.664 130.489 18.16 130.025 18.56C129.561 18.96 129.049 19.16 128.489 19.16C128.041 19.16 127.657 19 127.337 18.68C127.033 18.36 126.881 17.928 126.881 17.384C126.881 17.08 126.897 16.752 126.929 16.4C126.961 16.144 126.977 15.968 126.977 15.872C126.977 15.744 126.945 15.648 126.881 15.584C126.833 15.52 126.769 15.488 126.689 15.488C126.465 15.488 126.161 15.76 125.777 16.304C125.393 16.832 125.009 17.536 124.625 18.416C124.241 19.296 123.929 20.224 123.689 21.2C123.513 21.968 123.313 22.48 123.089 22.736C122.865 22.992 122.497 23.12 121.985 23.12C121.377 23.12 120.945 22.8 120.689 22.16C120.449 21.52 120.329 20.496 120.329 19.088C120.329 17.008 120.625 15.032 121.217 13.16C121.361 12.696 121.593 12.36 121.913 12.152C122.249 11.928 122.713 11.816 123.305 11.816C123.625 11.816 123.849 11.856 123.977 11.936C124.105 12.016 124.169 12.168 124.169 12.392C124.169 12.648 124.049 13.224 123.809 14.12C123.649 14.76 123.521 15.32 123.425 15.8C123.329 16.28 123.249 16.872 123.185 17.576C123.713 16.2 124.305 15.08 124.961 14.216C125.617 13.352 126.257 12.736 126.881 12.368C127.505 12 128.073 11.816 128.585 11.816C129.049 11.816 129.401 11.952 129.641 12.224C129.897 12.48 130.025 12.864 130.025 13.376C130.025 13.68 129.937 14.256 129.761 15.104H129.977ZM136.124 14.096C136.092 14.896 136.076 15.52 136.076 15.968C136.076 17.12 136.132 18.024 136.244 18.68C136.372 19.32 136.572 19.784 136.844 20.072C137.132 20.344 137.524 20.48 138.02 20.48C138.276 20.48 138.58 20.4 138.932 20.24C139.284 20.08 139.604 19.872 139.892 19.616C140.068 19.456 140.244 19.376 140.42 19.376C140.612 19.376 140.764 19.488 140.876 19.712C141.004 19.92 141.068 20.176 141.068 20.48C141.068 20.784 141.004 21.08 140.876 21.368C140.764 21.656 140.588 21.896 140.348 22.088C139.516 22.776 138.572 23.12 137.516 23.12C135.996 23.12 134.884 22.488 134.18 21.224C133.476 19.944 133.124 18.28 133.124 16.232C133.124 15.528 133.148 14.816 133.196 14.096H132.26C131.78 14.096 131.452 14.008 131.276 13.832C131.116 13.656 131.036 13.376 131.036 12.992C131.036 12.096 131.396 11.648 132.116 11.648H133.484C133.756 9.888 134.172 8.28 134.732 6.824C135.292 5.368 135.964 4.208 136.748 3.344C137.548 2.48 138.404 2.048 139.316 2.048C139.988 2.048 140.516 2.344 140.9 2.936C141.284 3.528 141.476 4.272 141.476 5.168C141.476 7.648 140.436 9.808 138.356 11.648H141.044C141.3 11.648 141.484 11.704 141.596 11.816C141.708 11.928 141.764 12.136 141.764 12.44C141.764 13.544 140.86 14.096 139.052 14.096H136.124ZM138.668 4.352C138.428 4.352 138.156 4.656 137.852 5.264C137.564 5.856 137.284 6.688 137.012 7.76C136.756 8.816 136.54 9.992 136.364 11.288C137.308 10.472 138.012 9.56 138.476 8.552C138.956 7.528 139.196 6.6 139.196 5.768C139.196 4.824 139.02 4.352 138.668 4.352Z" fill="#313131"/>
</svg>
