<svg width="25" height="18" viewBox="0 0 25 18" fill="none" xmlns="http://www.w3.org/2000/svg">
<g clip-path="url(#clip0_2056_16616)">
<path d="M23.795 12.2817L22.791 12.206C22.6102 11.9762 22.4079 11.5898 22.2821 10.9408L22.2279 10.6628L21.9483 10.6283C21.9176 10.6244 18.8635 10.2446 16.4502 9.73183C14.4278 9.30176 13.2457 10.0863 12.8312 10.4441C12.702 10.5549 12.59 10.6731 12.4933 10.7946C12.3966 10.6731 12.2845 10.5554 12.1557 10.4444C11.7413 10.0871 10.5589 9.3032 8.53634 9.73219C6.12344 10.2449 3.06897 10.6252 3.03829 10.6286L2.75867 10.6632L2.70507 10.9408C2.58042 11.5828 2.38148 11.9674 2.2023 12.1988L1.09697 12.2817C0.723383 12.3095 0.44247 12.6371 0.470705 13.0126C0.498725 13.3877 0.824971 13.6685 1.19849 13.6411L9.54662 13.0138C9.92603 13.6872 10.7855 14.45 12.3994 14.45C12.4157 14.45 12.4308 14.4465 12.4467 14.4455C12.4626 14.4466 12.4777 14.45 12.494 14.45C14.108 14.45 14.9673 13.6872 15.3469 13.0138L23.6945 13.6411C24.0702 13.669 24.3946 13.3877 24.4223 13.0126C24.4493 12.6371 24.1689 12.3095 23.795 12.2817ZM14.9548 11.617C14.6005 11.5906 14.3028 11.8282 14.2376 12.1676C14.2358 12.1763 14.0425 13.0864 12.493 13.0864C12.4767 13.0864 12.4615 13.0902 12.4456 13.0913C12.4297 13.0901 12.4146 13.0864 12.3983 13.0864C10.9186 13.0864 10.6742 12.2486 10.654 12.1672C10.5888 11.8275 10.2804 11.5914 9.93681 11.6167L3.14462 12.1272C3.24276 11.9143 3.33235 11.6638 3.40584 11.3665C4.21553 11.2605 6.67513 10.9235 8.69713 10.4943C9.8646 10.2461 10.9686 10.4483 11.6508 11.0354C12.001 11.3375 12.1147 11.6361 12.1058 11.8001C12.1058 11.8029 12.1069 11.8053 12.1069 11.8081C12.1073 11.8197 12.1054 11.8317 12.1062 11.8434C12.1074 11.8613 12.1159 11.8765 12.1195 11.8936C12.1248 11.9218 12.1296 11.9485 12.1404 11.9743C12.1496 11.9956 12.1626 12.0135 12.1753 12.0325C12.1899 12.055 12.2044 12.077 12.2229 12.0956C12.2401 12.1124 12.2598 12.1254 12.2795 12.1391C12.3002 12.1531 12.3199 12.1673 12.3432 12.1771C12.3676 12.1877 12.3934 12.192 12.4197 12.1972C12.4375 12.2007 12.453 12.2094 12.4716 12.2106C12.479 12.211 12.4856 12.2075 12.493 12.2075C12.5008 12.2075 12.5075 12.211 12.5152 12.2106C12.5361 12.2094 12.5531 12.2 12.5731 12.1954C12.5959 12.1904 12.6183 12.187 12.6397 12.1779C12.6673 12.1669 12.6909 12.1505 12.7145 12.1334C12.7305 12.1216 12.7475 12.1113 12.7615 12.0972C12.7821 12.0771 12.7981 12.0535 12.814 12.0288C12.8255 12.0109 12.8375 11.9942 12.8465 11.9744C12.8577 11.9485 12.8625 11.9215 12.8678 11.8929C12.8714 11.8758 12.8799 11.861 12.8811 11.8431C12.8819 11.8313 12.8799 11.8193 12.8803 11.8078C12.8803 11.8049 12.8814 11.8027 12.8814 11.7998C12.8725 11.6354 12.9864 11.3366 13.3369 11.0347C14.0188 10.4477 15.1225 10.2455 16.2901 10.4937C18.3122 10.9228 20.7718 11.26 21.5813 11.366C21.6556 11.6667 21.7466 11.9199 21.8458 12.1342L14.9548 11.617Z" fill="#313131"/>
<path d="M12.0898 6.92342V3.21448H13.0789V6.92342H12.0898Z" fill="#313131"/>
<path d="M15.0855 7.14177L16.293 3.63489L17.2281 3.95689L16.0206 7.46377L15.0855 7.14177Z" fill="#313131"/>
<path d="M17.9109 8.441L20.1943 5.51831L20.9737 6.12723L18.6903 9.04992L17.9109 8.441Z" fill="#313131"/>
<path d="M9.15232 7.53288L7.88379 4.04761L8.81319 3.70933L10.0817 7.1946L9.15232 7.53288Z" fill="#313131"/>
<path d="M6.74159 9.07506L4.56152 6.07446L5.36168 5.49311L7.54175 8.49371L6.74159 9.07506Z" fill="#313131"/>
</g>
<defs>
<clipPath id="clip0_2056_16616">
<rect width="24.0632" height="18" fill="white" transform="translate(0.46875)"/>
</clipPath>
</defs>
</svg>
