<svg width="25" height="25" viewBox="0 0 25 25" fill="none" xmlns="http://www.w3.org/2000/svg">
<path d="M17.172 19.8864C18.2634 19.2763 18.6346 17.9348 19.377 15.2519L20.427 11.4577C21.1696 8.77466 21.5408 7.43319 20.9106 6.37638C20.2804 5.31955 18.895 4.96011 16.1242 4.24122L14.1648 3.73288C11.3939 3.01399 10.0085 2.65454 8.91701 3.26469C8.13993 3.6991 7.72793 4.50422 7.28711 5.90024" fill="#313131"/>
<path d="M17.172 19.8864C18.2634 19.2763 18.6346 17.9348 19.377 15.2519L20.427 11.4577C21.1696 8.77466 21.5408 7.43319 20.9106 6.37638C20.2804 5.31955 18.895 4.96011 16.1242 4.24122L14.1648 3.73288C11.3939 3.01399 10.0085 2.65454 8.91701 3.26469C8.13993 3.6991 7.72793 4.50422 7.28711 5.90024" stroke="#313131" stroke-width="1.44231"/>
<path d="M3.30176 11.9183C3.30176 9.10116 3.30176 7.69259 4.17694 6.81741C5.05212 5.94223 6.46069 5.94223 9.27785 5.94223H11.2699C14.087 5.94223 15.4956 5.94223 16.3708 6.81741C17.246 7.69259 17.246 9.10116 17.246 11.9183V16.8984C17.246 19.7155 17.246 21.1241 16.3708 21.9993C15.4956 22.8745 14.087 22.8745 11.2699 22.8745H9.27785C6.46069 22.8745 5.05212 22.8745 4.17694 21.9993C3.30176 21.1241 3.30176 19.7155 3.30176 16.8984V11.9183Z" fill="#313131" stroke="#FAFAFA" stroke-width="1.44231"/>
<path d="M13.8971 13.4575L6.83447 13.4575" stroke="#FAFAFA" stroke-width="1.44231" stroke-linecap="round"/>
<path d="M12.8109 15.6306L7.92139 15.6306" stroke="#FAFAFA" stroke-width="1.44231" stroke-linecap="round"/>
</svg>
