<svg width="25" height="25" viewBox="0 0 25 25" fill="none" xmlns="http://www.w3.org/2000/svg">
<path d="M13.0144 6.93918C13.1247 6.62738 13.1847 6.2918 13.1847 5.94221C13.1847 4.29196 11.8469 2.95416 10.1967 2.95416C8.54641 2.95416 7.20862 4.29196 7.20862 5.94221C7.20862 6.2918 7.26866 6.62738 7.37897 6.93918C5.10332 6.94749 3.88886 7.02826 3.10372 7.81341C2.31865 8.59848 2.23782 9.81276 2.22949 12.088C2.54076 11.9781 2.87567 11.9183 3.22455 11.9183C4.87481 11.9183 6.2126 13.2561 6.2126 14.9064C6.2126 16.5567 4.87481 17.8944 3.22455 17.8944C2.87567 17.8944 2.54076 17.8346 2.22949 17.7247C2.23782 20 2.31865 21.2142 3.10372 21.9993C3.88879 22.7843 5.10308 22.8652 7.37831 22.8735C7.26842 22.5622 7.20862 22.2274 7.20862 21.8785C7.20862 20.2282 8.54641 18.8904 10.1967 18.8904C11.8469 18.8904 13.1847 20.2282 13.1847 21.8785C13.1847 22.2274 13.1249 22.5622 13.015 22.8735C15.2902 22.8652 16.5046 22.7843 17.2897 21.9993C18.0747 21.2141 18.1555 19.9997 18.1639 17.7241C18.4756 17.8343 18.8112 17.8944 19.1608 17.8944C20.8111 17.8944 22.1488 16.5567 22.1488 14.9064C22.1488 13.2561 20.8111 11.9183 19.1608 11.9183C18.8112 11.9183 18.4756 11.9784 18.1639 12.0886C18.1555 9.813 18.0747 8.59856 17.2897 7.81341C16.5045 7.02826 15.29 6.94749 13.0144 6.93918Z" fill="#313131"/>
</svg>
