<svg width="24" height="24" viewBox="0 0 24 24" fill="none" xmlns="http://www.w3.org/2000/svg">
<path d="M2 11.4C2 10.2417 2.09669 10 2.56 10H9.44C9.90332 10 10 10.2417 10 11.4V12.6C10 13.7583 9.90332 14 9.44 14H2.56C2.09669 14 2 13.7583 2 12.6V11.4Z" stroke="#303030" stroke-width="1.5" stroke-linecap="round"/>
<path d="M2 3.4C2 2.24173 2.09669 2 2.56 2H9.44C9.90332 2 10 2.24173 10 3.4V4.6C10 5.75827 9.90332 6 9.44 6H2.56C2.09669 6 2 5.75827 2 4.6V3.4Z" stroke="#303030" stroke-width="1.5" stroke-linecap="round"/>
<path d="M14 3.4C14 2.24173 14.0967 2 14.56 2H21.44C21.9033 2 22 2.24173 22 3.4V4.6C22 5.75827 21.9033 6 21.44 6H14.56C14.0967 6 14 5.75827 14 4.6V3.4Z" stroke="#303030" stroke-width="1.5" stroke-linecap="round"/>
<path d="M14 11.4C14 10.2417 14.0967 10 14.56 10H21.44C21.9033 10 22 10.2417 22 11.4V12.6C22 13.7583 21.9033 14 21.44 14H14.56C14.0967 14 14 13.7583 14 12.6V11.4Z" stroke="#303030" stroke-width="1.5" stroke-linecap="round"/>
<path d="M14 19.4C14 18.2417 14.0967 18 14.56 18H21.44C21.9033 18 22 18.2417 22 19.4V20.6C22 21.7583 21.9033 22 21.44 22H14.56C14.0967 22 14 21.7583 14 20.6V19.4Z" stroke="#303030" stroke-width="1.5" stroke-linecap="round"/>
<path d="M2 19.4C2 18.2417 2.09669 18 2.56 18H9.44C9.90332 18 10 18.2417 10 19.4V20.6C10 21.7583 9.90332 22 9.44 22H2.56C2.09669 22 2 21.7583 2 20.6V19.4Z" stroke="#303030" stroke-width="1.5" stroke-linecap="round"/>
</svg>
